<svg width="50" height="11" viewBox="0 0 50 11" fill="none" xmlns="http://www.w3.org/2000/svg">
<path d="M5 0.720703L6.12257 4.17562H9.75528L6.81636 6.31087L7.93893 9.76579L5 7.63053L2.06107 9.76579L3.18364 6.31087L0.244718 4.17562H3.87743L5 0.720703Z" fill="#FFA700"/>
<path d="M15 0.720703L16.1226 4.17562H19.7553L16.8164 6.31087L17.9389 9.76579L15 7.63053L12.0611 9.76579L13.1836 6.31087L10.2447 4.17562H13.8774L15 0.720703Z" fill="#FFA700"/>
<path d="M25 0.720703L26.1226 4.17562H29.7553L26.8164 6.31087L27.9389 9.76579L25 7.63053L22.0611 9.76579L23.1836 6.31087L20.2447 4.17562H23.8774L25 0.720703Z" fill="#FFA700"/>
<path d="M35 0.720703L36.1226 4.17562H39.7553L36.8164 6.31087L37.9389 9.76579L35 7.63053L32.0611 9.76579L33.1836 6.31087L30.2447 4.17562H33.8774L35 0.720703Z" fill="#FFA700"/>
<path d="M45 0.720703L46.1226 4.17562H49.7553L46.8164 6.31087L47.9389 9.76579L45 7.63053L42.0611 9.76579L43.1836 6.31087L40.2447 4.17562H43.8774L45 0.720703Z" fill="#FFA700"/>
</svg>
